<svg xmlns="http://www.w3.org/2000/svg" height="512" viewBox="0 0 512 512" width="512"><path d="M413.256 285.82h-58.714c54.809-59.136 57.531-141.835 55.913-176.419-.279-5.974-3.976-11.063-9.646-13.284-5.762-2.259-12.308-.935-16.678 3.369l-54.246 53.418a7.5 7.5 0 0 0 10.525 10.687l54.245-53.418c.092-.09.175-.172.382-.151a.881.881 0 0 1 .437.129c1.618 34.703-1.317 120.58-62.256 175.669h-38.16a216.224 216.224 0 0 0 1.919-4.153c14.724-14.862 42.389-45.279 60.713-80.668a7.5 7.5 0 0 0-3.212-10.108 7.497 7.497 0 0 0-10.108 3.212c-9.812 18.95-22.708 36.641-34.595 51.001 4.324-17.102 6.56-34.646 6.56-52.189 0-68.102-32.716-151.434-46.782-184.101C267.246 3.459 261.927 0 256 0s-11.246 3.459-13.552 8.813c-14.066 32.667-46.783 116.001-46.783 184.101 0 17.542 2.237 35.087 6.56 52.189-11.886-14.36-24.782-32.05-34.595-51a7.5 7.5 0 1 0-13.32 6.896c18.324 35.389 45.99 65.806 60.713 80.668a216.224 216.224 0 0 0 1.919 4.153h-38.161c-60.924-55.075-63.872-140.922-62.255-175.67a.884.884 0 0 1 .436-.128c.189-.023.29.062.381.151l54.325 53.495a7.5 7.5 0 0 0 10.525-10.687l-54.326-53.495c-4.369-4.303-10.917-5.627-16.677-3.369-5.671 2.221-9.367 7.311-9.646 13.283-1.618 34.585 1.104 117.285 55.913 176.42H98.744c-15.962 0-28.947 12.985-28.947 28.946 0 15.962 12.985 28.947 28.947 28.947h5.736l33.575 143.978C141.392 502.004 153.987 512 168.684 512h174.633c14.696 0 27.292-9.996 30.629-24.309l33.575-143.978h5.736c15.962 0 28.947-12.985 28.947-28.947-.001-15.96-12.986-28.946-28.948-28.946zM256 15.27c13.818 32.171 45.334 112.688 45.334 177.645 0 39.701-12.065 71.873-23.027 92.906H263.5V139.988c0-4.143-3.357-7.5-7.5-7.5s-7.5 3.357-7.5 7.5V285.82h-14.807c-10.962-21.034-23.028-53.206-23.028-92.906 0-64.953 31.516-145.474 45.335-177.644zm157.256 313.444H178.501c-4.143 0-7.5 3.357-7.5 7.5s3.357 7.5 7.5 7.5h213.618l-32.781 140.571A16.383 16.383 0 0 1 343.317 497H168.684a16.382 16.382 0 0 1-16.021-12.715l-32.781-140.571h23.56c4.143 0 7.5-3.357 7.5-7.5s-3.357-7.5-7.5-7.5H98.744c-7.69 0-13.947-6.257-13.947-13.947s6.257-13.946 13.947-13.946h314.512c7.69 0 13.947 6.256 13.947 13.946s-6.257 13.947-13.947 13.947z"/></svg>