<svg xmlns="http://www.w3.org/2000/svg" width="22" height="20" viewBox="0 0 22 20" fill="none"><path fill-rule="evenodd" clip-rule="evenodd" d="M16.535.879a3 3 0 0 0-4.242 0l-1.414 1.414c-.06.06-.118.122-.172.186a3.01 3.01 0 0 0-.171-.186L9.12.879A3 3 0 1 0 4.88 5.12l.877.88H0v6h2v8h18v-8h2V6h-6.343l.878-.879a3 3 0 0 0 0-4.242ZM13.707 5.12l1.414-1.414a1 1 0 0 0-1.414-1.414l-1.414 1.414a1 1 0 0 0 1.414 1.414ZM9.121 3.707 7.707 2.293a1 1 0 1 0-1.414 1.414l1.414 1.414a1 1 0 0 0 1.414-1.414ZM20 8v2H2V8h18Zm-8.083 4H18v6h-6.083v-6Zm-1.834 0v6H4v-6h6.083Z" fill="#D23F57"/></svg>