<svg xmlns="http://www.w3.org/2000/svg" width="20" height="20" viewBox="0 0 20 20" fill="none"><path fill-rule="evenodd" clip-rule="evenodd" d="M12.45 3.983 11.436 5.03a2 2 0 0 1-2.872 0L7.549 3.983a3.183 3.183 0 0 0-2.285-.982c-.845 0-1.669.345-2.286.982A3.52 3.52 0 0 0 2 6.432c0 .93.359 1.81.978 2.449L10 16.126l7.022-7.245c.306-.316.552-.695.721-1.116a3.58 3.58 0 0 0 0-2.666 3.437 3.437 0 0 0-.721-1.115 3.259 3.259 0 0 0-1.058-.731 3.121 3.121 0 0 0-2.456 0 3.257 3.257 0 0 0-1.058.73ZM10 19l-8.458-8.728A5.52 5.52 0 0 1 0 6.432a5.52 5.52 0 0 1 1.542-3.84A5.183 5.183 0 0 1 5.264 1a5.164 5.164 0 0 1 3.722 1.59L10 3.638l1.014-1.047a5.231 5.231 0 0 1 1.708-1.178 5.122 5.122 0 0 1 4.028 0 5.255 5.255 0 0 1 1.708 1.178 5.445 5.445 0 0 1 1.141 1.762 5.58 5.58 0 0 1 0 4.157 5.445 5.445 0 0 1-1.141 1.762L10 19Z" fill="#A3B3DB"/></svg>