<svg xmlns="http://www.w3.org/2000/svg" width="14" height="14" viewBox="0 0 14 14" fill="none"><path fill-rule="evenodd" clip-rule="evenodd" d="M7 3.818a3.182 3.182 0 1 0 0 6.364 3.182 3.182 0 0 0 0-6.364ZM5.09 7a1.91 1.91 0 1 0 3.82 0 1.91 1.91 0 0 0-3.82 0Z" fill="#fff"/><path d="M10.818 2.545a.636.636 0 1 0 0 1.273.636.636 0 0 0 0-1.273Z" fill="#fff"/><path fill-rule="evenodd" clip-rule="evenodd" d="M2.545 0A2.545 2.545 0 0 0 0 2.545v8.91A2.545 2.545 0 0 0 2.545 14h8.91A2.545 2.545 0 0 0 14 11.454V2.545A2.545 2.545 0 0 0 11.454 0H2.545Zm8.91 1.273h-8.91c-.702 0-1.272.57-1.272 1.272v8.91c0 .703.57 1.272 1.272 1.272h8.91c.703 0 1.272-.57 1.272-1.273V2.545c0-.702-.57-1.272-1.273-1.272Z" fill="#fff"/></svg>