<svg xmlns="http://www.w3.org/2000/svg" height="512pt" viewBox="-8 0 512 512.001" width="512pt"><path d="M255.879 223.148c.781 0 1.578-.015 2.39-.05a7.54 7.54 0 0 0 7.22-7.844c-.176-4.16-3.676-7.375-7.848-7.219-3.782.164-10.446-.07-12.524-3.375-2.664-4.234.375-14.25 3.274-19.683a7.538 7.538 0 0 0-13.282-7.133c-1.164 2.16-11.12 21.476-2.777 34.804 4.363 6.973 12.277 10.5 23.547 10.5zm-42.992-52.355c0-8.672-5.477-15.461-12.465-15.461-6.992 0-12.469 6.79-12.469 15.461 0 8.668 5.477 15.46 12.469 15.46 6.988 0 12.465-6.792 12.465-15.46zm82.23 15.461c6.992 0 12.469-6.793 12.469-15.461 0-8.672-5.477-15.461-12.469-15.461-6.992 0-12.469 6.79-12.469 15.461 0 8.668 5.477 15.46 12.47 15.46zm-86.769 45.281c-3.485 2.281-4.453 6.957-2.172 10.438.613.933 15.344 22.93 41.594 22.93 26.246 0 40.976-21.997 41.59-22.93a7.537 7.537 0 1 0-12.602-8.27c-.106.16-10.79 16.125-28.988 16.125-17.989 0-28.899-15.992-28.989-16.125a7.537 7.537 0 0 0-10.433-2.168zm287.175 272.442c-.152-2.364-4.074-58.141-33.878-82.239-3.875-3.133-9.547-7.07-17.348-12.039-3.516-2.234-8.172-1.203-10.406 2.309a7.538 7.538 0 0 0 2.304 10.406c7.22 4.598 12.59 8.313 15.97 11.047 18.714 15.129 25.315 48.195 27.425 63.465H135.434a7.539 7.539 0 0 0-7.54 7.539 7.535 7.535 0 0 0 7.54 7.535h352.57c4.285 0 7.797-3.738 7.52-8.023zm0 0"/><path d="M105.285 496.926H15.95c2.11-15.278 8.711-48.34 27.422-63.469 23.156-18.723 123.922-72.46 151.027-86.793l32.387 63.047a23.495 23.495 0 0 0 20.985 12.812 23.5 23.5 0 0 0 20.984-12.812l32.387-63.047c18.363 9.711 70.586 37.531 109.488 60.266a7.533 7.533 0 0 0 10.309-2.703 7.539 7.539 0 0 0-2.704-10.313 1811.517 1811.517 0 0 0-23.718-13.594c6.43-40.8 13.18-100.168 10.906-160.449-2.945-78.2-20.336-136.55-51.684-173.43C327.54 15.625 291.715 0 247.254 0c-38.77 0-71.09 11.93-96.055 35.45-21.43 20.19-37.586 49.136-48.02 86.027a7.537 7.537 0 1 0 14.505 4.101c9.68-34.23 24.433-60.86 43.851-79.152 22.078-20.805 50.918-31.352 85.719-31.352 39.836 0 71.797 13.84 95 41.133 64.894 76.336 49.883 239.2 38.223 316.262-32.29-17.942-64.036-34.778-75.024-40.574v-36.368a87.848 87.848 0 0 0 4.535-4.425c42.239-44.676 37.633-130.832 37.414-134.48a7.535 7.535 0 0 0-5.148-6.708c-.422-.137-42.117-14.426-66.91-62.969a7.536 7.536 0 0 0-5.86-4.058 7.544 7.544 0 0 0-6.625 2.64c-.37.442-37.78 44.246-109.535 63.657a7.533 7.533 0 0 0-5.554 6.777c-.243 3.644-5.418 89.77 36.523 134.723 1.863 2 3.8 3.87 5.793 5.644v35.563c-11.227 5.918-43.32 22.921-75.973 41.09-8-52.598-17.168-142.118-3.043-218.739.754-4.094-1.953-8.023-6.047-8.777s-8.023 1.953-8.78 6.047c-15.028 81.543-4.485 176.664 3.835 229.332-28.476 16.082-55.133 31.96-66.18 40.89C4.094 445.836.168 501.614.016 503.977c-.278 4.285 3.23 8.023 7.52 8.023h97.75a7.537 7.537 0 0 0 0-15.074zM290.38 334.62l-35.035 68.203c-3.114 6.063-12.035 6.063-15.153 0l-35.03-68.203v-27.656c12.257 6.668 26.265 10.07 41.894 10.125h.36c16.065 0 30.433-3.567 42.964-10.602zM162.62 162.227c55.203-16.149 90.078-45.282 104.383-59.223 22.457 37.656 53.453 54.031 65.496 59.254.305 18.191-.977 84.152-33.488 118.512-13.407 14.167-30.848 21.285-51.91 21.246-21.036-.07-38.454-7.336-51.762-21.59-31.98-34.246-33.113-99.293-32.719-118.2zm0 0"/></svg>