<svg xmlns="http://www.w3.org/2000/svg" width="28" height="28" viewBox="0 0 28 28" fill="none"><path fill-rule="evenodd" clip-rule="evenodd" d="M15.944 9.625a2.527 2.527 0 1 1-5.055 0 2.527 2.527 0 0 1 5.055 0Zm-2.528 3.792a3.792 3.792 0 1 0 0-7.584 3.792 3.792 0 0 0 0 7.584ZM21 19.736C21 21 19.736 21 19.736 21H7.096s-1.263 0-1.263-1.264 1.264-5.056 7.583-5.056c6.32 0 7.584 3.792 7.584 5.056Zm-1.264-.005c-.002-.31-.195-1.246-1.052-2.103-.824-.824-2.375-1.684-5.268-1.684-2.894 0-4.443.86-5.268 1.684-.856.857-1.049 1.792-1.051 2.103h12.639Z" fill="#4B566B"/></svg>