<svg xmlns="http://www.w3.org/2000/svg" width="64" height="64" viewBox="0 0 64 64" fill="none"><g clip-path="url(#a)" fill="#A3B3DB"><path d="m59.186 17.365-.002-.05a66.712 66.712 0 0 1-.058-1.989c-.052-3.529-2.857-6.447-6.386-6.645-7.359-.41-13.051-2.81-17.915-7.55l-.041-.04a4.096 4.096 0 0 0-5.567 0l-.041.04C24.312 5.87 18.62 8.27 11.26 8.68c-3.529.198-6.334 3.117-6.386 6.646-.011.719-.03 1.369-.058 1.988l-.003.116c-.143 7.503-.32 16.841 2.803 25.317 1.718 4.662 4.32 8.713 7.732 12.044 3.887 3.793 8.978 6.804 15.131 8.95A4.671 4.671 0 0 0 32 64a4.594 4.594 0 0 0 1.523-.26c6.146-2.149 11.232-5.161 15.115-8.954 3.411-3.331 6.013-7.384 7.732-12.046 3.136-8.502 2.959-17.858 2.816-25.375Zm-6.34 24.075c-3.294 8.934-10.02 15.07-20.562 18.756a.843.843 0 0 1-.567 0c-10.553-3.68-17.283-9.812-20.576-18.746-2.88-7.813-2.716-16.385-2.572-23.948v-.041c.03-.65.05-1.331.06-2.08a3.015 3.015 0 0 1 2.842-2.95c4.164-.232 7.822-1.037 11.183-2.46 3.357-1.42 6.339-3.424 9.114-6.123a.346.346 0 0 1 .465 0c2.776 2.7 5.757 4.702 9.114 6.123 3.361 1.423 7.02 2.228 11.184 2.46a3.014 3.014 0 0 1 2.84 2.951c.012.752.031 1.433.06 2.079.144 7.57.303 16.15-2.584 23.98Z"/><path d="M32 16.052c-8.795 0-15.95 7.155-15.95 15.95 0 8.794 7.155 15.95 15.95 15.95 8.794 0 15.95-7.156 15.95-15.95 0-8.795-7.156-15.95-15.95-15.95Zm0 28.144c-6.724 0-12.195-5.47-12.195-12.194 0-6.725 5.47-12.195 12.195-12.195 6.723 0 12.193 5.47 12.193 12.195 0 6.724-5.47 12.194-12.193 12.194Z"/><path d="m36.584 27.05-7.409 7.408-2.01-2.011a1.878 1.878 0 0 0-2.656 2.655l3.339 3.339c.366.367.847.55 1.327.55s.961-.183 1.328-.55l8.736-8.736a1.878 1.878 0 0 0-2.655-2.656Z"/></g><defs><clipPath id="a"><path fill="#fff" d="M0 0h64v64H0z"/></clipPath></defs></svg>