<svg xmlns="http://www.w3.org/2000/svg" width="64" height="64" viewBox="0 0 64 64" fill="none"><g clip-path="url(#a)"><path d="M64 35c0-5.208-3.694-9.484-8.357-9.847a5.646 5.646 0 0 0-3.931-3.834C50.456 10.996 42.074 3.125 32 3.125s-18.456 7.871-19.712 18.194a5.646 5.646 0 0 0-3.93 3.834 8.16 8.16 0 0 0-.483.052V13a1.875 1.875 0 0 0-3.75 0v13.706C1.645 28.466 0 31.526 0 35c0 5.208 3.694 9.484 8.357 9.847a5.646 5.646 0 0 0 3.913 3.829c.799 4.65 4.856 8.199 9.73 8.199h.434a5.884 5.884 0 0 0 5.566 4h8A5.882 5.882 0 0 0 41.875 55 5.882 5.882 0 0 0 36 49.125h-8a5.884 5.884 0 0 0-5.566 4H22a6.135 6.135 0 0 1-5.92-4.557 5.634 5.634 0 0 0 3.795-5.318v-16.5c0-2.47-1.6-4.572-3.819-5.326C17.227 13.142 23.95 6.875 32 6.875s14.773 6.267 15.944 14.55a5.633 5.633 0 0 0-3.819 5.325v16.5a5.631 5.631 0 0 0 5.625 5.625h.5a5.634 5.634 0 0 0 5.393-4.028C60.306 44.484 64 40.207 64 35ZM28 52.875h8c1.172 0 2.125.953 2.125 2.125A2.127 2.127 0 0 1 36 57.125h-8A2.127 2.127 0 0 1 25.875 55c0-1.172.953-2.125 2.125-2.125ZM3.75 35c0-2.973 1.928-5.534 4.375-6.036v12.072C5.678 40.533 3.75 37.973 3.75 35Zm12.375 8.25a1.877 1.877 0 0 1-1.875 1.875h-.5a1.877 1.877 0 0 1-1.875-1.875v-16.5c0-1.034.841-1.875 1.875-1.875h.5c1.034 0 1.875.841 1.875 1.875v16.5Zm36 0a1.877 1.877 0 0 1-1.875 1.875h-.5a1.877 1.877 0 0 1-1.875-1.875v-16.5c0-1.034.841-1.875 1.875-1.875h.5c1.034 0 1.875.841 1.875 1.875v16.5Zm3.75-2.214V28.964c2.447.503 4.375 3.063 4.375 6.036 0 2.974-1.928 5.533-4.375 6.036Z" fill="#A3B3DB"/></g><defs><clipPath id="a"><path fill="#fff" d="M0 0h64v64H0z"/></clipPath></defs></svg>