<svg xmlns="http://www.w3.org/2000/svg" viewBox="0 0 512 512" style="enable-background:new 0 0 512 512" xml:space="preserve"><path d="M252.43 293.891c-4.985-2.372-10.95-.257-13.324 4.728l-1.658 3.484c-2.373 4.985-.256 10.95 4.728 13.324a9.954 9.954 0 0 0 4.291.974 9.996 9.996 0 0 0 9.033-5.702l1.658-3.484c2.374-4.986.256-10.951-4.728-13.324zm-112.04-57.938c-3.904-3.904-10.234-3.904-14.138 0-8.288 8.289-21.775 8.289-30.064 0-3.904-3.904-10.234-3.904-14.138 0s-3.904 10.234 0 14.138c8.042 8.041 18.606 12.063 29.17 12.063s21.127-4.021 29.169-12.063c3.904-3.903 3.904-10.233.001-14.138z"/><path d="M477.379 26.56c-35.221-35.22-92.454-35.322-127.815-.328-11.038-5.48-22.757-10.181-35.113-14.051C273.916-.516 240.754-.045 237.878.018 183.647.054 136.343 22.809 114.4 59.422a92.24 92.24 0 0 0-7.245 14.993C96.82 84.256 50.18 132.457 50.18 200.803c0 45.522-21.896 69.289-34.947 79.405a18.333 18.333 0 0 0-7.063 15.878 18.34 18.34 0 0 0 9.323 14.676c4.918 2.764 10.449 5.417 15.797 7.983 4.729 2.269 11.449 5.493 14.726 7.591v17.806c0 2.436-.465 4.815-1.382 7.074l-2.479 6.102c-3.395 8.354-2.145 17.919 3.243 25.117v2.193a21.78 21.78 0 0 0 7.613 16.564v11.738c0 25.155 20.464 45.619 45.619 45.619h29.518c5.521 0 9.997-4.476 9.997-9.997s-4.476-9.997-9.997-9.997H100.63c-14.129 0-25.626-11.496-25.626-25.626v-17.248a9.997 9.997 0 0 0-6.075-9.195l-.432-.184a1.818 1.818 0 0 1-1.106-1.674v-5.643a10 10 0 0 0-2.14-6.182l-1.764-2.242a5.76 5.76 0 0 1-.808-5.718l2.479-6.103a38.618 38.618 0 0 0 2.852-14.598v-21.283c0-9.633-9.813-14.341-26.071-22.141-4.269-2.048-8.659-4.155-12.542-6.232 16.078-13.122 40.778-41.746 40.778-93.684 0-37.582 16.729-68.898 31.242-89 .793 17.419 6.062 35.635 15.813 53.874 25.657 47.987 70.337 68.101 106.238 84.261 34.158 15.376 53.491 25.055 53.646 45.175.113 14.775-3.285 25.646-10.1 32.309-7.868 7.694-18.312 7.497-18.375 7.496-3.355-.235-6.5 1.23-8.543 3.898-2.044 2.668-2.509 6.191-1.408 9.366.293.846 7.375 20.926 23.588 40.493 20.264 24.455 45.843 37.359 74.364 37.648l26.862 78.756c1.417 4.157 5.301 6.773 9.46 6.773 1.07 0 2.159-.173 3.228-.539 5.226-1.782 8.017-7.463 6.234-12.688l-26.454-77.561c49.873-26.726 84.938-68.185 101.654-120.399 13.325-41.621 13.962-88.323 2.703-132.555a90.745 90.745 0 0 0 17.051-13.392c35.334-35.332 35.334-92.823.001-128.157zm-38.795 268.011c-15.688 49.005-49.369 87.588-97.468 111.694-24.321 1.092-45.534-8.958-63.071-29.899-7.071-8.442-12.189-17.132-15.54-23.71 5.704-1.784 12.255-4.963 18.153-10.612 11.073-10.606 16.608-26.447 16.45-47.083-.26-33.918-31.917-48.167-65.432-63.254-34.86-15.692-74.371-33.477-96.814-75.456-13.942-26.079-17.224-50.876-9.793-72.617.031-.083.06-.167.089-.25a72.967 72.967 0 0 1 6.394-13.685C149.919 39.05 190.712 20.01 238.01 20.01c.096 0 .191-.001.288-.004.311-.01 31.819-.763 70.178 11.252 51.047 15.991 88.65 45.786 111.763 88.558 29.21 54.061 36.069 119.389 18.345 174.755zm15.768-146.444c-4.46-12.997-9.964-25.674-16.525-37.815-16.411-30.368-40.12-55.302-69.855-73.819 27.72-23.239 69.218-21.849 95.27 4.204 27.538 27.538 27.538 72.346 0 99.884a71.122 71.122 0 0 1-8.89 7.546z"/><path d="m264.573 468.308-31.321-54.25-1.059-37.043c-.886-31.022-24.881-56.313-55.814-58.83-22.746-1.854-44.585 10.76-54.354 31.383l-.494 1.042c-12.95 27.335-3.607 60.403 21.732 76.921l31.179 20.324 34.062 58.996a9.988 9.988 0 0 0 13.655 3.658c4.781-2.76 6.42-8.874 3.659-13.656l-30.259-52.41 12.056-6.961 12.056-6.961 27.586 47.78c2.759 4.781 8.873 6.419 13.656 3.659 4.783-2.757 6.421-8.871 3.66-13.652zm-82.35-39.247-28.04-18.278c-17.002-11.083-23.271-33.272-14.582-51.614l.494-1.042C145.921 345.83 158.479 338 171.944 338c.935 0 1.874.038 2.815.115 20.755 1.688 36.855 18.659 37.449 39.473l.961 33.606-30.946 17.867zm97.332 65.874a10.07 10.07 0 0 0-7.068-2.929c-2.639 0-5.208 1.07-7.068 2.929s-2.929 4.439-2.929 7.068 1.07 5.208 2.929 7.068a10.057 10.057 0 0 0 7.068 2.929c2.629 0 5.208-1.07 7.068-2.929 1.859-1.859 2.929-4.439 2.929-7.068s-1.07-5.208-2.929-7.068zM197.63 58.603c-2.171-5.075-8.045-7.433-13.123-5.262-17.631 7.537-30.347 20.242-35.806 35.776-5.47 15.565-3.416 33.043 5.94 50.542a9.993 9.993 0 0 0 13.529 4.102c4.869-2.603 6.706-8.66 4.103-13.53-6.738-12.603-8.322-24.206-4.709-34.488 3.579-10.183 12.387-18.714 24.803-24.02 5.076-2.168 7.432-8.042 5.263-13.12zm24.384-12.6-.56.001c-5.52.032-9.971 4.534-9.938 10.056.032 5.501 4.502 9.938 9.996 9.938h.06l.442-.001c5.521 0 9.997-4.476 9.997-9.997s-4.476-9.997-9.997-9.997z"/></svg>