<svg xmlns="http://www.w3.org/2000/svg" width="98" height="44" viewBox="0 0 98 44" fill="none"><path d="M18.01 11.02c1.36 0 2.54.21 3.54.63 1.02.4 1.79.96 2.31 1.68.54.7.81 1.51.81 2.43 0 .52-.07 1-.21 1.44-.58 2.02-2.25 3.3-5.01 3.84.96.28 1.72.75 2.28 1.41.56.64.84 1.44.84 2.4 0 .44-.08.96-.24 1.56-.44 1.56-1.33 2.72-2.67 3.48-1.32.74-3.2 1.11-5.64 1.11H1.54c-.42 0-.74-.07-.96-.21-.24-.14-.36-.33-.36-.57 0-.12.03-.25.09-.39.08-.22.21-.39.39-.51.18-.12.29-.19.33-.21.32-.2.58-.4.78-.6.2-.22.37-.57.51-1.05l3.66-12.93c.08-.26.12-.51.12-.75 0-.22-.04-.4-.12-.54-.06-.16-.15-.34-.27-.54-.18-.26-.27-.47-.27-.63 0-.06.02-.17.06-.33a.81.81 0 0 1 .51-.54c.28-.12.7-.18 1.26-.18h10.74Zm-1.35 5.49c.14-.44.21-.85.21-1.23 0-1.04-.59-1.56-1.77-1.56h-1.35l-1.59 5.61h1.32c.84 0 1.5-.2 1.98-.6.5-.42.9-1.16 1.2-2.22Zm-2.19 8.82c.14-.48.21-.92.21-1.32 0-1.08-.62-1.62-1.86-1.62h-1.5L9.61 28.3h1.53c.86 0 1.55-.21 2.07-.63.52-.44.94-1.22 1.26-2.34Zm20.962-10.2c2.72 0 4.72.55 6 1.65 1.3 1.1 1.95 2.54 1.95 4.32 0 .6-.08 1.27-.24 2.01-.38 1.64-1.09 3.08-2.13 4.32-1.04 1.22-2.32 2.17-3.84 2.85-1.5.66-3.13.99-4.89.99-2.78 0-4.84-.55-6.18-1.65-1.32-1.12-1.98-2.6-1.98-4.44 0-.62.08-1.31.24-2.07.38-1.56 1.1-2.94 2.16-4.14a10.92 10.92 0 0 1 3.93-2.82c1.56-.68 3.22-1.02 4.98-1.02Zm-.09 2.67c-.42 0-.87.38-1.35 1.14-.46.74-1.01 2.15-1.65 4.23-.64 2.08-.96 3.54-.96 4.38 0 .44.07.74.21.9.14.14.33.21.57.21.42.04.85-.32 1.29-1.08.46-.76 1.03-2.24 1.71-4.44.62-1.94.93-3.35.93-4.23 0-.42-.07-.71-.21-.87-.12-.16-.3-.24-.54-.24Zm26.738 9.06c-.04.08-.06.2-.06.36 0 .14.03.25.09.33.08.08.18.12.3.12.24 0 .44-.1.6-.3.18-.22.3-.33.36-.33.1 0 .18.07.24.21.06.12.09.27.09.45.02.58-.17 1.15-.57 1.71-.4.54-.99.99-1.77 1.35-.76.34-1.68.51-2.76.51-1.32 0-2.37-.3-3.15-.9-.78-.62-1.18-1.44-1.2-2.46 0-.74.18-1.57.54-2.49l1.65-4.32c.1-.26.15-.47.15-.63 0-.26-.09-.46-.27-.6a.814.814 0 0 0-.6-.24c-.44 0-.86.21-1.26.63-.4.4-.69.9-.87 1.5l-1.86 6.12c-.08.22-.12.43-.12.63 0 .24.05.44.15.6.1.14.24.29.42.45.14.12.24.23.3.33s.07.22.03.36c-.08.26-.27.45-.57.57-.3.12-.77.18-1.41.18h-6.84c-.52 0-.89-.08-1.11-.24-.24-.18-.33-.41-.27-.69.08-.24.29-.45.63-.63.3-.16.55-.35.75-.57.2-.22.37-.57.51-1.05l2.67-8.67c.04-.1.06-.24.06-.42 0-.22-.05-.39-.15-.51-.08-.12-.22-.27-.42-.45-.2-.16-.34-.3-.42-.42-.08-.12-.09-.28-.03-.48.12-.46.75-.86 1.89-1.2 1.14-.36 2.33-.54 3.57-.54 1 0 1.79.28 2.37.84.58.54.84 1.3.78 2.28.82-1.18 1.69-1.99 2.61-2.43.92-.46 1.92-.69 3-.69 1.22 0 2.2.37 2.94 1.11.76.74 1.14 1.7 1.14 2.88 0 .62-.1 1.23-.3 1.83l-1.83 5.91Zm10.794-11.73c1.16 0 2.01.22 2.55.66.54.44.81 1.04.81 1.8 0 .46-.07.9-.21 1.32l-2.76 8.97c-.06.24-.09.45-.09.63 0 .26.05.47.15.63.1.14.24.28.42.42.14.14.24.26.3.36.06.08.07.19.03.33-.1.26-.3.45-.6.57-.3.12-.76.18-1.38.18h-6.84c-.52 0-.9-.08-1.14-.24-.24-.18-.32-.41-.24-.69.08-.24.29-.45.63-.63.3-.16.55-.35.75-.57.2-.22.37-.57.51-1.05l2.61-8.67c.06-.18.09-.33.09-.45 0-.22-.05-.39-.15-.51-.1-.14-.25-.28-.45-.42-.2-.16-.34-.3-.42-.42-.08-.12-.09-.28-.03-.48.12-.46.75-.86 1.89-1.2 1.14-.36 2.33-.54 3.57-.54Zm2.01-6.63c.78 0 1.43.26 1.95.78.52.5.78 1.12.78 1.86 0 .52-.14 1.03-.42 1.53-.26.5-.64.91-1.14 1.23-.48.3-1.02.45-1.62.45-.76 0-1.4-.25-1.92-.75-.5-.52-.76-1.16-.78-1.92 0-.5.13-.99.39-1.47.26-.5.63-.91 1.11-1.23.48-.32 1.03-.48 1.65-.48Zm18.877 6.63c1.14 0 2.05.32 2.73.96.7.62 1.05 1.38 1.05 2.28 0 .96-.29 1.71-.87 2.25-.58.54-1.34.81-2.28.81-.84 0-1.49-.21-1.95-.63-.46-.44-.68-.93-.66-1.47-.2-.04-.37.04-.51.24-.14.2-.29.59-.45 1.17-.1.38-.29.73-.57 1.05 1.36.1 2.37.41 3.03.93.66.52.99 1.19.99 2.01 0 .4-.07.8-.21 1.2l-.24.93c-.04.1-.06.23-.06.39 0 .28.13.42.39.42.24 0 .44-.1.6-.3.18-.22.3-.33.36-.33.1 0 .18.07.24.21.06.12.09.27.09.45.02.58-.16 1.15-.54 1.71-.36.54-.92.99-1.68 1.35-.74.34-1.64.51-2.7.51-1.28 0-2.35-.32-3.21-.96-.84-.64-1.26-1.48-1.26-2.52 0-.38.08-.81.24-1.29l.57-1.5c.1-.36.15-.62.15-.78 0-.26-.09-.45-.27-.57-.16-.12-.42-.18-.78-.18h-.6l-1.35 4.41c-.06.24-.09.45-.09.63 0 .26.05.47.15.63.1.14.24.28.42.42.14.14.24.26.3.36.06.08.07.19.03.33-.1.26-.3.45-.6.57-.3.12-.76.18-1.38.18H76c-.52 0-.9-.08-1.14-.24-.24-.18-.32-.41-.24-.69.08-.24.29-.45.63-.63.3-.16.55-.35.75-.57.2-.22.37-.57.51-1.05l4.56-14.97c.06-.18.09-.33.09-.45a.8.8 0 0 0-.18-.54c-.1-.14-.24-.28-.42-.42-.2-.16-.35-.3-.45-.42-.08-.12-.09-.28-.03-.48.12-.46.75-.86 1.89-1.2 1.14-.34 2.33-.51 3.57-.51 1.16 0 2.01.22 2.55.66.54.42.81 1.01.81 1.77 0 .46-.07.9-.21 1.32l-2.61 8.52h.99c.4 0 .72-.12.96-.36.26-.24.46-.59.6-1.05.5-1.48 1.15-2.61 1.95-3.39.8-.78 1.86-1.17 3.18-1.17Z" fill="#E94560"/></svg>