<svg xmlns="http://www.w3.org/2000/svg" height="512pt" viewBox="-12 0 512 512.001" width="512pt"><path d="M209.836 175.996c0-8.613-5.453-15.36-12.414-15.36-6.957 0-12.41 6.747-12.41 15.36s5.449 15.36 12.41 15.36 12.414-6.747 12.414-15.36zm80.801 15.359c6.96 0 12.414-6.746 12.414-15.359s-5.453-15.36-12.414-15.36c-6.961 0-12.41 6.747-12.41 15.36s5.449 15.36 12.41 15.36zm-38.625 36.317c.773 0 1.558-.016 2.36-.047a7.562 7.562 0 0 0 7.237-7.871c-.171-4.172-3.68-7.402-7.867-7.238-3.691.156-10.195-.063-12.203-3.258-2.59-4.117.39-13.906 3.223-19.23a7.56 7.56 0 0 0-3.075-10.231 7.566 7.566 0 0 0-10.242 3.074c-1.148 2.129-10.98 21.211-2.73 34.399 4.324 6.91 12.156 10.402 23.297 10.402zm-46.864 7.996a7.562 7.562 0 0 0-2.175 10.469c.605.925 15.144 22.636 41.058 22.636 25.91 0 40.453-21.71 41.059-22.636 2.281-3.48 1.312-8.133-2.156-10.434-3.47-2.297-8.153-1.344-10.47 2.113-.105.157-10.808 15.836-28.433 15.836s-28.328-15.675-28.418-15.808a7.557 7.557 0 0 0-10.465-2.176zm0 0"/><path d="M100.129 496.879H15.996c.711-5.14 1.941-12.297 4-20.113 3.598-13.664 10.496-32.059 22.926-42.11 21.96-17.754 114.855-67.511 145.441-83.726 5.48 25.703 28.352 45.043 55.668 45.043 27.313 0 50.188-19.344 55.668-45.047 11.442 6.066 31.582 16.812 53.344 28.758 3.617 1.98 8.285.617 10.266-2.993a7.562 7.562 0 0 0-2.989-10.265c-26.234-14.399-50.125-27.063-59.367-31.942V299.23a87.282 87.282 0 0 0 5.234-5.125c8.641-9.261 15.778-20.816 21.395-34.55 2.527.449 5.016.675 7.45.675 12.066 0 22.765-5.492 30.519-16 13.761-18.664 15.863-50.16 4.41-66.082a40.2 40.2 0 0 0-1.563-2.027c13.516-46.559 9.426-86.004-12.183-117.3C325.352 14.116 269.309 1.292 250.32.124c-26.84-1.648-45.761 13.344-54.125 21.703-10.804-6.238-22.43-7.504-33.968-3.625-20.098 6.754-37.536 29.043-45.512 58.168-1.633 5.961-2.75 13.113-3.317 21.25a7.56 7.56 0 0 0 7.012 8.07c4.152.297 7.777-2.851 8.07-7.015.5-7.145 1.45-13.309 2.817-18.313 6.562-23.965 20.594-42.738 35.746-47.832 8.77-2.945 17.445-1.199 25.773 5.2 3.305 2.542 8.059 1.906 10.606-1.395.18-.227 17.957-22.84 45.965-21.121 15.812.976 67.082 12.652 94.386 52.195 18.102 26.219 21.965 59.574 11.551 99.242-4.058-1.398-8.418-1.757-12.965-1.047a126.586 126.586 0 0 0-.187-4.218 7.558 7.558 0 0 0-5.477-6.774c-81.78-23.222-117.785-76.37-118.129-76.894a7.569 7.569 0 0 0-7.113-3.364 7.555 7.555 0 0 0-6.25 4.782c-18.617 47.906-56.457 77.035-56.832 77.32a7.574 7.574 0 0 0-2.988 5.582c-.012.2-.078 1.426-.137 3.5-4.445-.625-8.71-.223-12.684 1.184-2.062-14.563-3.44-28.02-4.085-40.09-.223-4.168-3.786-7.375-7.954-7.145a7.566 7.566 0 0 0-7.148 7.953c.793 14.786 2.633 31.512 5.453 49.73a36.21 36.21 0 0 0-.726.974c-11.442 15.906-9.356 47.386 4.382 66.046 7.754 10.536 18.461 16.043 30.547 16.043 2.403 0 4.864-.226 7.364-.664 5.738 13.938 13.039 25.617 21.855 34.946 1.57 1.66 3.2 3.214 4.855 4.714v35.254c-22.52 11.871-128.687 68.203-153.687 88.414C4.031 446.66.164 501.625.016 503.953-.262 508.25 3.258 512 7.559 512h92.57a7.56 7.56 0 1 0 0-15.121zm239.848-286.363c1.488-11.114 2.132-21.27 2.37-29.434 7.989-2.383 12.364 1.762 15.337 5.895 6.96 9.671 6.34 33.847-4.305 48.277-5.375 7.293-12.316 10.543-20.688 9.754 3.164-10.488 5.606-21.977 7.286-34.492zM285.832 339.05c0 23.05-18.75 41.8-41.8 41.8s-41.802-18.75-41.802-41.8v-28.985c12.204 6.696 26.153 10.075 41.72 10.075h.355c15.504-.051 29.386-3.442 41.527-10.098zM134.66 235.23c-10.62-14.43-11.234-38.598-4.285-48.258 4.152-5.77 8.867-7.707 14.941-6.016.274 8.293.98 18.738 2.594 30.195 1.727 12.274 4.188 23.559 7.336 33.871-8.324.743-15.23-2.52-20.586-9.793zm25.703-69.012c8.864-7.36 35.887-31.805 53.774-69.621 14.953 17.43 50.879 52.007 113.136 71.004.387 18.64-.742 82.562-32.168 116.214-13.074 14-30.183 21.137-50.851 21.204-20.664.085-37.82-6.954-50.992-20.868-32.856-34.718-33.27-102.289-32.899-117.933zm0 0"/><path d="M488.047 503.953c-.152-2.328-4.02-57.297-33.402-81.055-9.688-7.832-32.512-21.882-67.84-41.761a7.564 7.564 0 0 0-10.297 2.879 7.56 7.56 0 0 0 2.883 10.296c43.09 24.247 59.535 35.32 65.746 40.344 18.316 14.809 24.824 47.137 26.918 62.223H130.37c-4.176 0-7.558 3.383-7.558 7.558S126.195 512 130.37 512H480.5c4.305 0 7.824-3.75 7.547-8.047zm0 0"/></svg>