<svg xmlns="http://www.w3.org/2000/svg" height="512" viewBox="0 0 511.98 511.98" width="512"><path d="M474.189 249.065c-15.283-27.933-30.476-45.984-35.949-52.095v-41.228l71-58.299a7.502 7.502 0 0 0 .246-11.381l-53.72-48.15a7.5 7.5 0 0 0-10.012 11.17l47.211 42.316-54.722 44.933v-30.672c0-4.142-3.357-7.5-7.5-7.5s-7.5 3.358-7.5 7.5l-.004 87.897c-53.551 8.667-107.749 8.666-161.3-.002v-87.895c0-4.142-3.357-7.5-7.5-7.5s-7.5 3.358-7.5 7.5v30.675l-54.726-44.936 58.383-52.337c8.589-7.702 19.681-10.903 30.355-9.635 2.198 9.442 7.246 29.247 14.998 48.977 12.738 32.421 27.596 51.803 44.16 57.606a7.504 7.504 0 0 0 4.958 0c16.564-5.803 31.423-25.185 44.164-57.605 7.739-19.693 12.781-39.446 14.988-48.911 6.608-.79 13.432.094 19.776 2.81a7.5 7.5 0 0 0 9.847-3.943 7.499 7.499 0 0 0-3.942-9.846c-19.267-8.249-41.729-4.46-57.23 9.649l-6.921 6.3c-13.205 12.024-33.112 12.024-46.312 0l-6.92-6.3a53.498 53.498 0 0 0-71.935-.269l-64.891 58.17a7.502 7.502 0 0 0 .246 11.381l71 58.299v41.222c-4.917 5.472-17.553 20.415-31.021 43.329-11.406-6.078-23.469-12.079-35.688-18.154-10.678-5.31-21.433-10.658-31.757-16.089 10.09-12.635 17.873-26.937 21.284-43.704 5.212-25.623-2.412-48.511-20.917-62.796-17.543-13.542-41.702-16.561-60.119-7.512-9.872 4.85-26.433 17.438-26.433 47.242 0 18.866 11.981 36.701 36.63 54.525 7.71 5.575 16.378 10.975 25.604 16.244-11.438 11.251-24.565 21.265-36.966 30.723-26.699 20.364-52.03 39.7-52.685 65.752-16.334 3.916-28.937 17.537-31.131 34.693a465.01 465.01 0 0 0 0 117.732c2.52 19.695 18.765 34.747 38.629 35.788a2307.382 2307.382 0 0 0 120.045 3.115c40.108 0 80.219-1.039 120.048-3.115 19.869-1.042 36.109-16.095 38.617-35.788a463.746 463.746 0 0 0 3.132-35.153c6.102.183 12.255.281 18.379.281 97.91 0 161.79-22.909 164.462-23.884a7.501 7.501 0 0 0 4.928-7.045c.002-62.002-20.548-112.576-37.789-144.085zM309.339 45.549c18.952 17.269 47.547 17.269 66.511.002l6.92-6.299a38.447 38.447 0 0 1 4.444-3.483c-2.605 9.936-6.601 23.561-11.94 37.146-12.502 31.813-24.306 43.734-32.683 47.885-8.376-4.151-20.18-16.072-32.679-47.885-5.338-13.587-9.335-27.221-11.94-37.161a39.294 39.294 0 0 1 4.45 3.497zM77.29 139.278c0-16.298 6.24-27.979 18.047-33.78 4.938-2.426 10.581-3.603 16.389-3.603 9.706 0 19.87 3.289 27.95 9.526 8.113 6.262 20.899 20.817 15.384 47.932-3.023 14.864-10.419 27.795-20.071 39.388-32.415-18.165-57.699-37.45-57.699-59.463zM43.149 320.415a2313.115 2313.115 0 0 1 39.751-1.724 7.499 7.499 0 0 0 7.235-7.755 7.491 7.491 0 0 0-7.755-7.236c-10.608.367-21.459.824-32.351 1.354 1.932-18.254 22.822-34.203 46.625-52.357 13.983-10.666 28.827-21.988 41.586-35.099 11.493 6.125 23.493 12.093 35.312 17.97 11.83 5.883 23.756 11.814 35.067 17.849-7.43 14.117-14.737 30.545-20.785 49.053-25.23-.281-50.418-.172-75.418.377-4.142.091-7.425 3.521-7.334 7.663s3.504 7.459 7.662 7.333c55.91-1.227 112.749-.361 168.938 2.572 12.616.654 22.928 10.2 24.52 22.702a447.982 447.982 0 0 1 2.457 24.759c-.606 8.3-1.429 16.54-2.457 24.512-1.591 12.492-11.906 22.033-24.532 22.688a2303.264 2303.264 0 0 1-50.861 2.083c.36-10.591.127-21.226-.722-31.757-1.147-14.244-12.702-25.571-26.876-26.346a671.65 671.65 0 0 0-73.142 0c-14.175.775-25.729 12.102-26.877 26.346a278.315 278.315 0 0 0-.714 32 2318.132 2318.132 0 0 1-59.329-2.326c-12.622-.654-22.938-10.195-24.528-22.691a476.702 476.702 0 0 1-2.459-24.419 449.278 449.278 0 0 1 2.459-24.849c1.598-12.5 11.914-22.048 24.528-22.702zm178.669-59.722c24.297 13.904 43.929 28.449 50.526 44.262a2309.465 2309.465 0 0 0-68.761-2.26c5.407-15.657 11.769-29.734 18.235-42.002zm-6.683 168.076c-.548 6.801-6.027 12.206-12.744 12.574h-.001a656.968 656.968 0 0 1-71.503 0c-6.717-.368-12.196-5.773-12.744-12.574a263.308 263.308 0 0 1 0-42.162c.548-6.801 6.027-12.206 12.745-12.574 11.861-.649 23.806-.974 35.751-.974s23.89.325 35.752.974c6.717.368 12.196 5.773 12.744 12.574a263.308 263.308 0 0 1 0 42.162zm66.545 50.987a2299.764 2299.764 0 0 1-238.526 0c-12.616-.662-22.935-10.213-24.533-22.71a449.418 449.418 0 0 1-3.248-39.007 41.048 41.048 0 0 0 26.996 12.017 2328.293 2328.293 0 0 0 61.132 2.379c2.199 13.068 13.22 23.156 26.567 23.886 12.134.664 24.353.996 36.571.996s24.438-.332 36.57-.996c13.429-.735 24.5-10.942 26.604-24.125a2310.783 2310.783 0 0 0 52.635-2.14 41.06 41.06 0 0 0 27.007-12.022 448.86 448.86 0 0 1-3.254 39.015c-1.592 12.496-11.905 22.045-24.521 22.707zm190.685-85.295c-1.543-22.547-4.394-45.012-8.504-66.906a7.498 7.498 0 0 0-8.755-5.987 7.499 7.499 0 0 0-5.987 8.755c4.139 22.051 6.956 44.702 8.42 67.423a517.978 517.978 0 0 1-19.57 3.608c-.907-30.162-4.126-60.195-9.604-89.401a7.5 7.5 0 1 0-14.742 2.765c5.443 29.027 8.602 58.898 9.409 88.892-22.363 3.069-49.673 5.467-80.443 5.467-5.949 0-11.926-.094-17.854-.271a464.103 464.103 0 0 0-3.656-67.585c-2.249-17.661-15.534-31.573-32.57-35.012-5.506-22.918-29.036-41.328-59.365-58.636 11.987-20.289 23.202-33.975 28.099-39.59 28.328 4.714 56.839 7.078 85.35 7.078 28.509 0 57.018-2.363 85.345-7.077 5.628 6.436 19.559 23.452 33.336 48.733 15.786 28.966 34.51 74.878 35.649 131.04-4.878 1.539-13.242 4.002-24.558 6.704z"/><path d="M196.735 385.408a646.477 646.477 0 0 0-30.096-.706c-9.954 0-20.08.237-30.098.706a7.501 7.501 0 0 0-7.136 7.036 252.116 252.116 0 0 0 0 30.487 7.5 7.5 0 0 0 7.136 7.036c10.01.468 20.137.706 30.098.706 9.96 0 20.086-.237 30.096-.706a7.501 7.501 0 0 0 7.136-7.036 252.116 252.116 0 0 0 0-30.487 7.5 7.5 0 0 0-7.136-7.036zm-7.523 29.858a628.102 628.102 0 0 1-45.146 0 237.85 237.85 0 0 1 0-15.156 626.944 626.944 0 0 1 45.146 0 237.85 237.85 0 0 1 0 15.156z"/></svg>