<svg xmlns="http://www.w3.org/2000/svg" width="24" height="24" viewBox="0 0 24 24" fill="none"><path d="M12 .75a4.5 4.5 0 0 0-4.5 4.5V6h-.622a2.453 2.453 0 0 0-2.453 2.34l-.592 12.337a2.46 2.46 0 0 0 2.452 2.573h11.43a2.461 2.461 0 0 0 2.453-2.573L19.575 8.34A2.452 2.452 0 0 0 17.122 6H16.5v-.75A4.5 4.5 0 0 0 12 .75Zm-3 4.5a3 3 0 1 1 6 0V6H9v-.75Zm9.075 3.158.593 12.345a.981.981 0 0 1-.263.704.967.967 0 0 1-.69.293H6.285a.968.968 0 0 1-.69-.293.982.982 0 0 1-.262-.704l.592-12.345a.953.953 0 0 1 .953-.908h10.244a.953.953 0 0 1 .953.908Z" fill="#395589"/><path d="M8.52 10.893a.75.75 0 1 0 0-1.5.75.75 0 0 0 0 1.5Zm6.96 0a.75.75 0 1 0 0-1.5.75.75 0 0 0 0 1.5Z" fill="#395589"/></svg>