<svg xmlns="http://www.w3.org/2000/svg" width="24" height="24" viewBox="0 0 24 24" fill="none"><path d="M19.078 24H4.922A4.927 4.927 0 0 1 0 19.078V4.922A4.927 4.927 0 0 1 4.922 0h14.156A4.927 4.927 0 0 1 24 4.922v14.156A4.928 4.928 0 0 1 19.078 24Z" fill="#00C3FF"/><path d="M19.078 0H12v24h7.078A4.928 4.928 0 0 0 24 19.078V4.922A4.927 4.927 0 0 0 19.078 0Z" fill="#00AAF0"/><path d="M7.39 18.493a1.173 1.173 0 0 1-2.03-1.172l.23-.4h2.707l-.907 1.572Zm-2.21-2.509a1.173 1.173 0 0 1-1.172-1.172c0-.646.526-1.172 1.172-1.172h2.305l3.162-5.476-.857-1.485a1.173 1.173 0 0 1 .429-1.6 1.173 1.173 0 0 1 1.6.429L12 5.82l.18-.312a1.173 1.173 0 0 1 2.147.282c.081.303.04.618-.117.89l-4.019 6.96h2.535l1.353 2.344h-8.9Z" fill="#fff"/><path d="M18.82 15.984h-.952l.772 1.337a1.173 1.173 0 0 1-1.318 1.718 1.165 1.165 0 0 1-.712-.546l-4.069-7.048 1.353-2.343 2.621 4.539h2.305c.646 0 1.172.525 1.172 1.172 0 .646-.526 1.171-1.172 1.171ZM12 13.64v2.344h2.08l-1.354-2.343H12Zm2.327-7.85a1.173 1.173 0 0 0-2.147-.283L12 5.82v4.688l2.21-3.828c.157-.271.198-.587.117-.89Z" fill="#F2F2F2"/></svg>