<svg xmlns="http://www.w3.org/2000/svg" width="22" height="22" viewBox="0 0 22 22" fill="none"><g clip-path="url(#a)"><path d="M20.164 5.128h-4.655c.606-.538.99-1.322.99-2.194 0-2.45-2.839-3.81-4.749-2.302a.366.366 0 1 0 .454.575c1.43-1.129 3.561-.113 3.561 1.727a2.202 2.202 0 0 1-2.05 2.194h-2.348V2.934A2.936 2.936 0 0 0 8.435.002a2.936 2.936 0 0 0-2.933 2.932c0 .872.383 1.656.99 2.194H1.837c-1.01 0-1.833.822-1.833 1.833V8.85c0 .917.677 1.679 1.558 1.812v9.505c0 1.011.822 1.833 1.833 1.833h15.211c1.01 0 1.833-.822 1.833-1.833v-7.886a.367.367 0 0 0-.733 0v7.886a1.1 1.1 0 0 1-1.1 1.1H9.717V10.683h2.566v9.265a.367.367 0 0 0 .733 0v-9.265h4.078a.367.367 0 0 0 0-.733h-2.428V5.86h5.498a1.1 1.1 0 0 1 1.1 1.1v1.89a1.1 1.1 0 0 1-1.1 1.099h-.71a.367.367 0 0 0 0 .733h.71c1.01 0 1.833-.822 1.833-1.833V6.96c0-1.01-.823-1.832-1.833-1.832ZM6.235 2.934c0-1.212.987-2.199 2.2-2.199 1.212 0 2.199.987 2.199 2.2v2.193h-2.35a2.202 2.202 0 0 1-2.049-2.194Zm2.75 18.333h-5.59a1.1 1.1 0 0 1-1.1-1.1v-9.484h6.69v10.584ZM13.932 9.95H1.837a1.1 1.1 0 0 1-1.1-1.1V6.96a1.1 1.1 0 0 1 1.1-1.099h5.498V8.8a.367.367 0 0 0 .733 0V5.861h5.865V9.95Z" fill="#585E6F"/></g><defs><clipPath id="a"><path fill="#fff" d="M0 0h22v22H0z"/></clipPath></defs></svg>