<svg xmlns="http://www.w3.org/2000/svg" width="64" height="64" viewBox="0 0 64 64" fill="none"><g clip-path="url(#a)" fill="#A3B3DB"><path d="M48.336 38.05c-4.448 0-8.067 3.62-8.067 8.068 0 4.448 3.619 8.067 8.067 8.067 4.45 0 8.067-3.62 8.067-8.068 0-4.448-3.618-8.067-8.067-8.067Zm0 12.101a4.038 4.038 0 0 1-4.033-4.034 4.038 4.038 0 0 1 4.033-4.033 4.038 4.038 0 0 1 4.034 4.033 4.038 4.038 0 0 1-4.034 4.034ZM20.773 38.05c-4.448 0-8.067 3.62-8.067 8.068 0 4.448 3.619 8.067 8.067 8.067s8.067-3.62 8.067-8.068c0-4.448-3.619-8.067-8.067-8.067Zm0 12.101a4.038 4.038 0 0 1-4.034-4.034 4.038 4.038 0 0 1 4.034-4.033 4.038 4.038 0 0 1 4.034 4.033 4.038 4.038 0 0 1-4.034 4.034ZM53.769 14.96a2.018 2.018 0 0 0-1.803-1.11H41.344v4.033h9.379l5.491 10.923 3.605-1.813-6.05-12.033Z"/><path d="M42.286 44.168h-15.26v4.034h15.26v-4.034Zm-27.563 0H7.73a2.017 2.017 0 1 0 0 4.034h6.992a2.017 2.017 0 1 0 0-4.034Zm48.854-12.33-3.968-5.109a2.014 2.014 0 0 0-1.592-.78H43.36V11.832a2.017 2.017 0 0 0-2.016-2.017H7.73a2.017 2.017 0 1 0 0 4.033h31.597v14.118c0 1.114.903 2.017 2.016 2.017H57.03l2.937 3.783v10.402h-5.58a2.017 2.017 0 1 0 0 4.033h7.597A2.017 2.017 0 0 0 64 46.184V33.075c0-.447-.15-.883-.423-1.237ZM14.588 33.95H5.311a2.017 2.017 0 1 0 0 4.033h9.277a2.017 2.017 0 1 0 0-4.033Zm4.639-7.933H2.017a2.017 2.017 0 1 0 0 4.033h17.21a2.016 2.016 0 1 0 0-4.033Z"/><path d="M22.521 18.084H5.311a2.017 2.017 0 1 0 0 4.034h17.21a2.017 2.017 0 1 0 0-4.034Z"/></g><defs><clipPath id="a"><path fill="#fff" d="M0 0h64v64H0z"/></clipPath></defs></svg>