<svg xmlns="http://www.w3.org/2000/svg" height="512" viewBox="0 0 511.988 511.988" width="512"><path d="M212.051 127.591c0-4.142-3.357-7.5-7.5-7.5s-7.5 3.358-7.5 7.5v20.374c0 4.142 3.357 7.5 7.5 7.5s7.5-3.358 7.5-7.5zm95.386-7.5a7.5 7.5 0 0 0-7.5 7.5v20.374c0 4.142 3.357 7.5 7.5 7.5s7.5-3.358 7.5-7.5v-20.374a7.5 7.5 0 0 0-7.5-7.5zm-22.277 42.752c-9.813-4.622-48.52-4.622-58.332 0-7.569 3.566-12.652 10.22-14.312 18.737-1.348 6.914-.396 14.623 2.68 21.706 4.262 9.815 11.991 17.333 22.353 21.743a46.842 46.842 0 0 0 10.945 3.137v10.835c0 4.142 3.357 7.5 7.5 7.5s7.5-3.358 7.5-7.5v-10.835a46.828 46.828 0 0 0 10.945-3.137c10.361-4.409 18.091-11.928 22.353-21.742 3.075-7.083 4.027-14.792 2.68-21.706-1.66-8.517-6.743-15.172-14.312-18.738zm-2.128 34.469c-2.741 6.314-7.608 10.996-14.466 13.914-7.988 3.4-17.152 3.401-25.145 0-6.857-2.918-11.725-7.6-14.466-13.915-2.737-6.304-3.86-17.071 4.26-20.896 2.98-1.348 12.88-2.022 22.778-2.022 9.896 0 19.792.674 22.775 2.021 8.124 3.828 7.001 14.594 4.264 20.898z"/><path d="M440.133 88.187c5.96-18.078 2.721-38.181-8.887-55.157-13.08-19.129-34.955-31.738-57.088-32.907-33.377-1.756-50.824 15.625-64.188 34.955-16.881-5.19-35.05-8.026-53.976-8.026-18.947 0-37.135 2.842-54.032 8.043-7.27-10.455-14.979-19.41-24.93-25.72a7.5 7.5 0 1 0-8.034 12.667c6.872 4.359 12.707 10.721 18.274 18.297-35.755 14.597-64.31 40.209-79.709 71.719-9.499-7.019-17.323-16.014-21.462-28.567-4.551-13.802-2.057-28.715 7.022-41.993 10.499-15.354 27.932-25.467 45.483-26.394l.64-.031a7.5 7.5 0 1 0-.672-14.985l-.746.036C115.697 1.292 93.822 13.901 80.742 33.03c-11.607 16.976-14.847 37.079-8.887 55.156 4.124 12.507 11.184 22.916 21.584 31.82 2.539 2.174 5.274 4.24 8.233 6.254-4.304 12.485-6.626 25.696-6.626 39.368 0 31.168 12.022 59.957 32.272 83.13-18.598 13.485-30.645 30.903-34.238 49.78-3.673 19.298 2.663 37.906 17.862 52.784-1.422 7.33-2.617 16.119-3.092 26.23-.468 9.95-.164 19.701.733 29.186-14.044 10.896-23.022 27.429-23.022 45.912 0 32.231 27.299 58.526 61.169 59.325.185.014 218.279.016 218.432.007 14.449-.324 28.37-5.346 39.348-14.251a7.501 7.501 0 0 0-9.449-11.65c-8.69 7.049-19.836 10.932-31.384 10.932-26.33 0-47.751-19.901-47.751-44.363 0-3.532.45-6.967 1.294-10.262 6.907-5.487 13.131-10.547 17.764-14.523 6.761-5.802 12.844-11.983 18.23-18.501a51.103 51.103 0 0 1 10.462-1.077c26.33 0 47.751 19.901 47.751 44.363 0 2.799-.281 5.596-.836 8.314a7.5 7.5 0 0 0 5.849 8.848c4.063.824 8.021-1.791 8.849-5.849a56.673 56.673 0 0 0 1.139-11.313c0-18.498-8.993-35.042-23.056-45.937 1.042-10.995 1.161-20.798.767-29.16-.469-9.984-1.64-18.679-3.039-25.954 15.111-14.799 21.436-33.316 17.839-52.546-3.563-19.046-15.657-36.566-34.408-50.134 20.335-23.2 32.412-52.051 32.412-83.29 0-13.679-2.325-26.898-6.634-39.389 12.841-8.771 24.069-20.601 29.824-38.053zM107.816 301.344c3.811-20.024 18.855-33.89 30.082-41.692a156.1 156.1 0 0 0 16.796 13.559 71.092 71.092 0 0 0-3.515 3.141c-2.729 2.628-6.99 6.065-7.753 10.069a7.491 7.491 0 0 0 2.699 7.471 7.462 7.462 0 0 0 5.053 1.578c8.857 1.303 17.902 3.646 26.912 6.999 14.188 5.279 33.55 14.165 37.889 30.313 3.063 11.397-4.436 25.046-15.731 28.636-22.9 7.277-56.517-.93-76.531-18.684-9.282-8.232-19.574-22.095-15.901-41.39zm39.535 91.967c-8.652.124-16.882 1.91-24.353 5.04-.426-7.076-.445-13.523-.203-19.238.266-6.285.84-12.012 1.576-17.143a102.28 102.28 0 0 0 11.211 6.271 137.516 137.516 0 0 0 6.376 15.233 127.087 127.087 0 0 0 5.393 9.837zm.96 103.703c-26.33 0-47.751-19.901-47.751-44.363s21.421-44.363 47.751-44.363c3.6 0 7.103.385 10.476 1.093 5.382 6.512 11.461 12.687 18.217 18.484 4.634 3.977 10.858 9.037 17.766 14.524a41.228 41.228 0 0 1 1.293 10.261c-.001 24.463-21.421 44.364-47.752 44.364zm173.732 0H189.945c12.336-10.372 20.329-25.26 21.051-41.9 14.096 10.937 28.253 21.677 36.336 27.779a14.36 14.36 0 0 0 8.662 2.887c3.056 0 6.112-.962 8.663-2.887 8.082-6.102 22.238-16.841 36.335-27.779.722 16.64 8.715 31.528 21.051 41.9zm34.525-120.153c-7.163 14.584-17.712 27.915-31.354 39.622-16.85 14.461-56.753 44.739-69.221 54.155-12.471-9.418-52.372-39.695-69.221-54.155-13.642-11.707-24.19-25.037-31.354-39.622-.24-.489-.48-1.009-.721-1.515 8.981 2.421 18.177 3.703 27.028 3.703 8.123 0 15.959-1.077 23.063-3.334 18.776-5.967 30.773-27.847 25.675-46.824-6.138-22.842-29.846-34.042-47.145-40.479a154.095 154.095 0 0 0-17.088-5.256c10.105-7.817 22.755-12.216 35.57-12.216h.138c18.373.045 35.249 8.477 46.302 23.134 1.827 2.421 4.725 3.867 7.752 3.867s5.925-1.446 7.753-3.869c11.052-14.656 27.928-23.088 46.301-23.133h.138c12.942 0 25.722 4.481 35.876 12.445a153.893 153.893 0 0 0-17.332 5.255c-12.448 4.587-28.214 11.624-38.404 23.694-3.987 4.723-7.121 10.217-8.867 16.636-5.158 18.961 6.771 40.879 25.527 46.904 7.184 2.308 15.113 3.408 23.343 3.408 8.786 0 17.909-1.262 26.824-3.642-.193.41-.388.826-.583 1.222zm32.403 21.482c-7.466-3.124-15.689-4.908-24.334-5.032a127.099 127.099 0 0 0 5.394-9.837 137.69 137.69 0 0 0 6.263-14.891 102.369 102.369 0 0 0 11.334-6.312c1.385 9.896 2.16 22.026 1.343 36.072zm15.223-96.532c3.611 19.307-6.725 33.138-16.03 41.34-20.072 17.691-53.712 25.791-76.591 18.442-11.284-3.625-18.739-17.297-15.641-28.686 4.39-16.134 23.78-24.958 37.983-30.192 9.495-3.499 19.027-5.894 28.332-7.119a7.55 7.55 0 0 0 5.435-3.549c1.676-2.762 1.442-6.151-.548-8.687a68.088 68.088 0 0 0-6.326-7.007 71.484 71.484 0 0 0-3.513-3.14 156.076 156.076 0 0 0 16.631-13.41c11.51 7.978 26.509 21.913 30.268 42.008zm-60.327-37.586c-10.353-5.368-21.965-8.285-33.682-8.285h-.174c-20.88.051-40.224 8.715-54.017 23.986-13.793-15.271-33.138-23.935-54.017-23.986h-.174c-11.715 0-23.325 2.916-33.677 8.282-35.252-22.58-58.08-58.368-58.08-98.594 0-68.141 65.472-123.577 145.948-123.577s145.948 55.436 145.948 123.577c0 40.226-22.824 76.017-58.075 98.597zm60.524-152.24c-15.406-31.477-43.945-57.06-79.671-71.646 12.44-16.943 25.187-26.474 48.648-25.237 17.564.927 34.997 11.041 45.496 26.395 9.079 13.278 11.573 28.191 7.022 41.993-2.988 9.064-7.976 18.624-21.495 28.495z"/></svg>