<svg xmlns="http://www.w3.org/2000/svg" width="24" height="24" viewBox="0 0 24 24" fill="none"><g clip-path="url(#a)"><path d="m22.935 12.001 1.065-1.9-1.6-1.479.425-2.137-1.979-.911-.255-2.164-2.164-.255-.911-1.98-2.137.427L13.901 0 12 1.066 10.1.001l-1.479 1.6-2.137-.425-.911 1.979-2.164.255-.255 2.164-1.98.911.427 2.137L0 10.1 1.065 12 0 13.903l1.6 1.478-.425 2.137 1.979.911.255 2.164 2.164.255.911 1.98 2.137-.427 1.478 1.6 1.9-1.064L13.9 24l1.479-1.6 2.137.425.911-1.979 2.164-.255.255-2.164 1.98-.911-.427-2.137 1.6-1.478L22.936 12ZM8.629 14.064H7.62L5.78 11.79v2.275H4.51v-4.63h.99l1.859 2.354V9.435H8.63v4.63Zm4.095 0h-3.3V9.435h3.241v1.108h-1.969v.652h1.682v1.03h-1.682v.73h2.028v1.11Zm5.352 0H17.02l-.658-1.656-.652 1.656h-1.056L12.84 9.435h1.376l1.004 3.175.32-.965-.75-2.21h1.167l.404 1.428.41-1.428h1.168l-.763 2.21.332.965.998-3.175h1.382l-1.813 4.63Z" fill="#68C944"/></g><defs><clipPath id="a"><path fill="#fff" d="M0 0h24v24H0z"/></clipPath></defs></svg>