<svg xmlns="http://www.w3.org/2000/svg" width="24" height="24" viewBox="0 0 24 24" fill="none"><path d="m1.993 16.538-.5.498 4.216.973a.376.376 0 0 1 .281.281l.973 4.216.5-.5-1.026-4.444-4.444-1.024ZM12 3.375a6 6 0 1 0 6 6 6.006 6.006 0 0 0-6-6Zm2.296 6.888.692 2.771a.375.375 0 0 1-.581.396L12 11.71l-2.407 1.72a.375.375 0 0 1-.582-.396l.693-2.772-2.07-1.725a.375.375 0 0 1 .24-.662h2.73l1.04-3.119a.374.374 0 0 1 .713 0l1.038 3.119h2.73a.375.375 0 0 1 .24.663l-2.07 1.725Z" fill="#FAB400"/><path d="M12.77 8.368 12 6.06l-.77 2.308a.375.375 0 0 1-.355.257H8.91l1.455 1.212a.375.375 0 0 1 .123.379l-.502 2.012 1.796-1.283a.375.375 0 0 1 .436 0l1.796 1.283-.503-2.012a.375.375 0 0 1 .124-.38l1.454-1.211h-1.964a.375.375 0 0 1-.356-.257Zm-2.945 9.289a1.865 1.865 0 0 1-2.367-.965.7.7 0 0 0-.603-.413 1.865 1.865 0 0 1-1.765-1.837.818.818 0 0 0-.342-.66l-2.13 2.13 4.216.972a.375.375 0 0 1 .281.28l.973 4.217 3.165-3.165c-.21-.09-.4-.22-.563-.379a.798.798 0 0 0-.865-.18Z" fill="#FAB400"/><path d="M14.224 17.059a1.114 1.114 0 0 0 1.405-.586 1.578 1.578 0 0 1 1.43-.938 1.113 1.113 0 0 0 1.098-1.054 1.448 1.448 0 0 1 .85-1.246 1.115 1.115 0 0 0 .575-1.415 1.547 1.547 0 0 1 .346-1.661 1.114 1.114 0 0 0 .038-1.528 1.449 1.449 0 0 1-.281-1.482 1.114 1.114 0 0 0-.586-1.404 1.58 1.58 0 0 1-.938-1.43 1.114 1.114 0 0 0-1.054-1.097 1.449 1.449 0 0 1-1.247-.85 1.115 1.115 0 0 0-1.415-.576 1.546 1.546 0 0 1-1.66-.346 1.141 1.141 0 0 0-1.528-.037 1.446 1.446 0 0 1-1.481.28 1.114 1.114 0 0 0-1.405.587 1.578 1.578 0 0 1-1.43.937 1.113 1.113 0 0 0-1.098 1.055 1.448 1.448 0 0 1-.85 1.245 1.115 1.115 0 0 0-.576 1.415 1.547 1.547 0 0 1-.346 1.66 1.115 1.115 0 0 0-.037 1.528 1.448 1.448 0 0 1 .28 1.482 1.114 1.114 0 0 0 .587 1.404 1.58 1.58 0 0 1 .937 1.43 1.114 1.114 0 0 0 1.055 1.098 1.447 1.447 0 0 1 1.246.85 1.114 1.114 0 0 0 1.415.576 1.55 1.55 0 0 1 1.663.348 1.142 1.142 0 0 0 1.527.037 1.449 1.449 0 0 1 1.48-.282ZM12 16.125a6.75 6.75 0 1 1 6.75-6.75 6.757 6.757 0 0 1-6.75 6.75Z" fill="#FAB400"/><path d="m17.165 16.884 4.216-.973-2.02-2.019c-.015.008-.029.019-.044.026a.701.701 0 0 0-.413.603 1.864 1.864 0 0 1-1.837 1.764.825.825 0 0 0-.755.496 1.865 1.865 0 0 1-2.351.98.7.7 0 0 0-.716.136 1.86 1.86 0 0 1-.501.316l3.167 3.168.973-4.216a.375.375 0 0 1 .281-.281Z" fill="#FAB400"/><path d="m22.006 16.538-4.444 1.024-1.025 4.445.5.5.973-4.216a.376.376 0 0 1 .281-.281l4.215-.974-.5-.498Z" fill="#FAB400"/></svg>